<svg width="132" height="296" viewBox="0 0 132 296" fill="none" xmlns="http://www.w3.org/2000/svg">
<path d="M111.329 152.409C111.329 152.409 129.266 12.4966 118.328 4.41403C106.828 -4.0837 55.3276 120.416 55.3276 152.412C55.3276 162.412 65.3287 184.409 65.3287 184.409C65.3287 184.409 91.4963 213.367 111.329 208.409C123.329 205.409 129.776 190.985 126.329 176.909C120.329 152.409 44.2743 208.373 11.3279 186.409C2.32768 180.409 0.289526 163.528 12.8286 154.409C29.3281 142.409 54.4961 165.442 66.8287 187.409C74.0897 200.342 76.9817 213.638 78.3288 228.409C80.5873 253.172 63.8288 290.409 63.8288 290.409L27.8288 280.409C27.8288 280.409 22.9993 229.596 41.3276 211.916C45.0379 208.337 50.8408 205.871 55.3276 208.409C59.5764 210.813 55.3276 219.416 50.8288 220.909C41.8621 223.885 24.8276 223.416 24.8276 223.416" stroke="#D9D9D9" stroke-width="8" stroke-linecap="round"/>
</svg>
