<svg width="148" height="191" viewBox="0 0 148 191" fill="none" xmlns="http://www.w3.org/2000/svg">
<path d="M98.1199 171.528C98.1199 171.528 73.5058 160.202 72.6195 147.028C72.0962 139.25 71.4244 133.274 79.1199 132.028C85.7129 130.96 94.6203 131.028 92.6199 142.528C90.6195 154.028 59.1203 189.093 37.1202 186.028C-23.88 177.528 13.6201 88.5277 37.1202 97.0277C60.6204 105.528 46.6204 108.528 44.1204 110.028C41.6204 111.528 36.6208 113.528 33.6208 109.028C30.6208 104.528 32.1204 5.52793 57.6198 4.02781C80.3225 2.69221 88.2115 50.5376 86.6199 54.5278C85.6204 57.0336 89.1204 86.5336 86.6199 91.5278C84.1194 96.522 80.1594 95.8948 76.1199 94.5278C70.3268 92.5674 69.9475 82.5336 71.6199 79.5278C74.1204 75.0336 120.843 21.4224 134.62 31.5278C164.62 53.5336 110.12 109.028 110.12 109.028" stroke="black" stroke-width="8" stroke-linecap="round"/>
</svg>
