<svg width="201" height="461" viewBox="0 0 201 461" fill="none" xmlns="http://www.w3.org/2000/svg">
<path d="M176.411 115.059C175.611 112.259 153.911 7.05847 128.911 4.05865C103.911 1.05883 42.9106 115.059 42.9106 123.559C42.9106 159.156 164.411 165.405 168.911 164.559C185.126 161.51 205.253 139.445 191.911 130.559C185.911 126.562 176.104 131.85 173.411 136.059C165.411 148.562 168.911 418.062 156.411 431.559C116.061 475.124 21.4106 454.062 4.41067 427.559C0.144344 420.907 30.411 146.562 35.4106 143.559C38.1526 141.911 51.8587 148.935 52.411 155.562C54.4113 179.566 48.4107 262.062 48.4107 269.559C48.4107 280.062 101.911 312.062 128.911 295.559C142.142 287.471 132.412 180.066 142.411 175.062C146.609 172.962 153.411 179.062 153.411 185.559C153.411 187.062 151.093 188.185 142.411 191.562C115.934 201.864 62.911 175.062 62.911 175.062" stroke="black" stroke-width="8" stroke-linecap="round"/>
</svg>
