<svg width="131" height="243" viewBox="0 0 131 243" fill="none" xmlns="http://www.w3.org/2000/svg">
<path d="M59.9556 238.337L68.9554 48.3379C68.9554 48.3379 77.9551 35.8385 68.9554 36.3379C66.4554 36.4766 77.5386 43.9511 76.9557 47.8372C73.9554 67.8374 37.4554 91.3379 29.4554 100.337C25.6971 104.565 26.4554 115.817 32.4554 114.837C56.9554 110.838 88.9556 13.3374 106.456 5.83718C110.19 4.23659 114.369 7.81657 114.956 11.8372C118.456 35.8374 14.2225 94.4838 12.4556 94.8372C-0.045166 97.3379 3.9125 85.3749 7.95565 81.8372C23.9556 67.8374 69.9556 53.8372 69.9556 53.8372C69.9556 53.8372 107.445 63.0066 123.456 79.8372C143.429 100.833 53.9556 53.8372 53.9556 53.8372C53.9556 53.8372 19.4559 17.3369 18.4556 9.83718C17.4554 2.33742 22.9551 3.33783 27.4554 5.83747C27.4554 5.83747 110.455 99.3379 112.955 104.838C115.455 110.338 111.248 113.183 107.455 112.838C101.955 112.338 72.4557 69.8371 72.4557 69.8371" stroke="#D9D9D9" stroke-width="8" stroke-linecap="round"/>
</svg>
