<svg width="259" height="404" viewBox="0 0 259 404" fill="none" xmlns="http://www.w3.org/2000/svg">
<path d="M254.68 62.9391L212.18 299.439C212.18 299.439 79.1804 383.939 75.1804 390.439C72.7826 394.336 78.2564 398.273 82.6804 399.439C86.8599 400.541 93.1804 400.261 93.1804 395.939C93.1804 382.939 4.18042 263.439 4.18042 263.439C4.18042 263.439 36.6804 20.439 36.6804 5.93911C36.6804 0.784043 27.3882 7.05248 24.6804 11.4391C20.2428 18.6281 28.5685 23.923 36.6804 29.4391C49.1804 37.9392 223.554 54.8675 220.18 67.9391C216.18 83.4392 183.18 277.939 183.18 277.939L93.1804 333.439L41.6804 263.439C41.6804 263.439 60.6804 84.939 63.1804 58.4391C63.5831 54.1712 61.8466 49.9492 57.6804 48.9391C51.9717 47.5551 50.9606 57.1931 52.1804 62.9391C53.8504 70.8052 70.1804 72.9391 70.1804 72.9391" stroke="#D9D9D9" stroke-width="8" stroke-linecap="round"/>
</svg>
